<?xml version="1.0" standalone="no"?>
<!DOCTYPE svg PUBLIC "-//W3C//DTD SVG 20010904//EN"
 "http://www.w3.org/TR/2001/REC-SVG-20010904/DTD/svg10.dtd">
<svg
  xmlns:xlink="http://www.w3.org/1999/xlink" width="300" height="50" version="1.0" xmlns="http://www.w3.org/2000/svg"
 width="300.000000pt" height="50.000000pt" viewBox="0 0 300.000000 50.000000"
 preserveAspectRatio="xMidYMid meet">
<metadata>
Created by potrace 1.16, written by Peter Selinger 2001-2019
</metadata>
<g transform="translate(0.000000,50.000000) scale(0.100000,-0.100000)"
fill="#000000" stroke="none">
<path d="M2080 495 c0 -9 44 -70 53 -73 4 -2 7 -10 7 -18 0 -9 4 -13 8 -10 4
2 25 -11 47 -30 22 -19 48 -37 58 -40 9 -3 17 -10 17 -15 0 -6 5 -7 10 -4 6 3
10 1 10 -5 0 -6 4 -9 9 -5 5 3 12 1 15 -4 8 -12 165 -86 178 -83 4 1 23 -5 42
-13 20 -9 36 -12 37 -8 0 5 4 -1 8 -12 9 -22 3 -80 -11 -109 -8 -14 -7 -17 3
-11 8 5 10 4 5 -3 -17 -28 -15 -52 4 -52 12 0 21 9 24 22 3 13 12 58 21 101 9
43 15 80 13 81 -1 1 -43 15 -93 30 -165 52 -342 155 -401 231 -14 19 -35 35
-45 35 -11 0 -19 -2 -19 -5z"/>
<path d="M2300 480 c60 -48 315 -160 365 -160 8 0 25 33 40 78 15 42 29 83 32
90 3 7 -4 12 -20 12 -19 0 -26 -6 -31 -31 -3 -17 -9 -28 -13 -26 -5 3 -8 -8
-9 -25 -1 -16 -5 -33 -10 -38 -9 -9 -77 7 -129 30 -71 31 -155 75 -155 80 0 4
-21 7 -47 8 l-48 2 25 -20z"/>
<path d="M2861 478 c-56 -142 -70 -182 -67 -185 4 -4 173 -33 194 -33 6 0 12
9 12 20 0 24 -108 220 -121 220 -5 0 -13 -10 -18 -22z m53 -112 c14 -25 26
-47 26 -51 0 -4 -78 0 -86 4 -10 7 19 91 30 91 2 0 16 -20 30 -44z"/>
<path d="M2749 136 c-6 -22 -14 -62 -18 -88 -8 -46 -7 -48 15 -48 25 0 40 15
24 25 -6 4 -7 12 -3 18 4 7 9 23 11 37 5 48 10 53 45 46 17 -4 43 -9 57 -11
14 -1 46 -6 73 -10 44 -7 47 -6 47 14 0 11 -6 21 -12 21 -7 1 -61 9 -121 19
l-107 17 -11 -40z"/>
</g>
<rect x="0" y="0" width="300" height="50" fill="#05242f" stroke="#0a3846" stroke-width="1" />
<text x="150.0" y="25.0" font-family="Arial, sans-serif" font-size="16" fill="#ffffff" text-anchor="middle" dominant-baseline="middle">Mode 3 (Nobara)</text>
<rect class="progress" x="0" y="46" width="0" height="4" fill="#ec4899" />
</svg>
