<?xml version="1.0" standalone="no"?>
<!DOCTYPE svg PUBLIC "-//W3C//DTD SVG 20010904//EN"
 "http://www.w3.org/TR/2001/REC-SVG-20010904/DTD/svg10.dtd">
<svg
  xmlns:xlink="http://www.w3.org/1999/xlink" width="300" height="50" version="1.0" xmlns="http://www.w3.org/2000/svg"
 width="300.000000pt" height="50.000000pt" viewBox="0 0 300.000000 50.000000"
 preserveAspectRatio="xMidYMid meet">
<metadata>
Created by potrace 1.16, written by Peter Selinger 2001-2019
</metadata>
<g transform="translate(0.000000,50.000000) scale(0.100000,-0.100000)"
fill="#000000" stroke="none">
<path d="M2585 471 c6 -26 2 -32 -25 -46 -17 -9 -36 -15 -43 -14 -6 1 -34 -7
-60 -19 -27 -12 -54 -19 -59 -15 -7 3 -8 1 -4 -5 4 -7 3 -12 -3 -12 -13 0
-152 -80 -177 -102 -11 -10 -24 -15 -28 -11 -4 5 -6 3 -5 -2 2 -6 -22 -36 -53
-68 -52 -54 -103 -149 -91 -169 8 -15 43 -8 43 7 0 27 40 95 83 142 94 102
229 172 474 248 9 3 8 15 -3 50 -12 33 -21 45 -36 45 -17 0 -19 -5 -13 -29z"/>
<path d="M2750 469 c5 -18 11 -33 13 -35 1 -2 55 7 120 19 78 14 117 25 117
34 0 16 -50 17 -139 2 -45 -7 -67 -7 -75 1 -5 5 -18 10 -27 10 -15 0 -16 -5
-9 -31z"/>
<path d="M2880 333 c-47 -8 -86 -16 -87 -17 -2 -1 17 -53 41 -116 l44 -114 22
45 c13 24 40 71 61 105 42 66 51 115 22 113 -10 0 -56 -8 -103 -16z m35 -43
c3 5 13 10 22 10 13 0 13 -2 2 -17 -8 -9 -13 -19 -11 -22 1 -3 -4 -13 -12 -23
-8 -9 -13 -18 -11 -20 2 -2 -5 -10 -17 -17 -11 -7 -18 -8 -15 -4 3 5 0 20 -6
34 -7 13 -12 30 -12 37 0 19 27 33 41 21 8 -7 14 -6 19 1z"/>
<path d="M2570 261 c-189 -67 -324 -154 -366 -233 -14 -26 -13 -28 7 -28 12 0
41 22 72 55 28 30 56 55 64 55 7 0 13 5 13 11 0 5 5 7 10 4 6 -3 10 -1 10 5 0
6 4 9 9 5 5 -3 12 -1 16 5 4 6 11 7 17 4 6 -4 8 -2 4 4 -6 10 30 28 47 24 4
-1 7 2 7 7 0 5 20 14 45 20 25 6 45 16 45 22 0 6 9 9 20 6 11 -3 20 -1 20 5 0
6 6 8 14 5 8 -3 17 -1 19 6 5 14 23 -27 29 -64 1 -13 9 -30 16 -38 7 -7 16
-26 19 -42 3 -16 9 -29 14 -29 5 0 8 -3 7 -8 -1 -4 2 -19 6 -34 6 -21 14 -28
33 -28 16 0 23 4 20 13 -18 41 -77 190 -93 233 l-19 52 -105 -37z"/>
<path d="M2977 35 c-16 -34 -16 -35 3 -35 16 0 20 7 20 35 0 19 -1 35 -3 35
-2 0 -11 -16 -20 -35z"/>
</g>
<rect x="0" y="0" width="300" height="50" fill="#05252f" stroke="#0c3f4e" stroke-width="1" />
<text x="150.0" y="25.0" font-family="Arial, sans-serif" font-size="16" fill="#ffffff" text-anchor="middle" dominant-baseline="middle">Mode 2 (DNN Face)</text>
<rect class="progress" x="0" y="46" width="0" height="4" fill="#8b5cf6" />
</svg>
