<?xml version="1.0" standalone="no"?>
<!DOCTYPE svg PUBLIC "-//W3C//DTD SVG 20010904//EN"
 "http://www.w3.org/TR/2001/REC-SVG-20010904/DTD/svg10.dtd">
<svg
  xmlns:xlink="http://www.w3.org/1999/xlink" width="340" height="300" version="1.0" xmlns="http://www.w3.org/2000/svg"
 width="340.000000pt" height="300.000000pt" viewBox="0 0 340.000000 300.000000"
 preserveAspectRatio="xMidYMid meet">
<metadata>
Created by potrace 1.16, written by Peter Selinger 2001-2019
</metadata>
<g transform="translate(0.000000,300.000000) scale(0.100000,-0.100000)"
fill="#000000" stroke="none">
<path d="M2990 2483 c-30 -7 -56 -18 -58 -23 -2 -6 -9 -10 -15 -10 -16 0 -69
-57 -95 -102 -43 -76 -73 -205 -74 -318 0 -42 3 -67 19 -165 4 -22 8 -49 9
-60 1 -11 6 -30 9 -42 6 -17 1 -25 -24 -38 -17 -9 -37 -15 -44 -14 -6 1 -34
-7 -60 -19 -27 -12 -54 -19 -59 -15 -7 3 -8 1 -4 -5 4 -7 3 -12 -3 -12 -13 0
-152 -80 -177 -102 -11 -10 -24 -15 -28 -11 -4 5 -6 4 -5 -2 2 -5 -21 -35 -50
-65 -63 -65 -91 -123 -98 -204 -5 -61 18 -156 45 -185 7 -7 11 -20 8 -27 -3
-8 0 -14 7 -14 14 0 47 -35 47 -51 0 -5 4 -8 8 -5 4 2 25 -11 47 -30 22 -19
48 -37 58 -40 9 -3 17 -10 17 -15 0 -6 5 -7 10 -4 6 3 10 1 10 -5 0 -6 4 -9 9
-5 5 3 12 1 15 -4 8 -12 165 -86 178 -83 4 1 23 -5 42 -13 20 -9 36 -12 37 -8
0 5 4 -1 8 -12 9 -22 3 -80 -11 -109 -8 -14 -7 -17 3 -11 8 5 10 4 5 -4 -20
-31 -26 -162 -14 -261 6 -41 11 -85 11 -97 1 -12 5 -25 10 -29 4 -4 7 -15 7
-24 0 -9 11 -38 25 -64 14 -26 22 -52 19 -58 -4 -7 -2 -8 4 -4 7 4 12 2 12 -3
0 -6 8 -11 17 -11 9 0 14 -3 10 -6 -9 -9 62 -55 103 -67 71 -19 191 -9 266 23
24 11 44 17 44 13 0 -3 9 2 20 12 11 10 20 14 20 10 0 -4 9 0 20 10 14 13 20
14 20 5 0 -9 5 -7 15 6 13 17 21 64 11 64 -2 0 -30 -16 -62 -35 -82 -49 -171
-75 -260 -75 -109 0 -171 34 -218 120 -59 108 -74 333 -36 522 12 55 20 101
18 102 -2 1 -43 15 -93 30 -248 79 -430 215 -466 349 -33 123 35 258 181 357
100 68 194 109 377 165 8 3 6 21 -8 66 -30 96 -43 242 -30 346 21 168 76 273
165 314 50 22 149 25 222 5 49 -13 165 -66 192 -88 17 -15 26 -4 18 24 -4 15
-23 31 -56 47 -27 12 -48 26 -46 30 2 3 -6 7 -17 8 -12 0 -51 9 -86 18 -89 23
-137 25 -201 8z"/>
<path d="M2998 2311 c-20 -17 -46 -55 -59 -83 -21 -47 -23 -68 -24 -188 0
-126 20 -259 44 -299 5 -8 27 -7 82 4 41 8 123 21 182 29 60 8 110 16 111 18
52 71 68 99 62 114 -5 14 -11 12 -36 -15 -17 -17 -30 -36 -30 -42 0 -6 -7 -9
-14 -6 -9 4 -13 1 -10 -6 3 -9 -8 -14 -33 -15 -21 -2 -53 -6 -73 -10 -19 -4
-48 -8 -65 -7 -16 0 -32 -3 -35 -6 -3 -3 -29 -9 -58 -13 -50 -6 -53 -6 -63 21
-5 15 -8 35 -6 45 3 10 2 18 -3 18 -12 0 -17 69 -6 80 7 7 6 10 -1 10 -8 0
-11 31 -9 103 4 119 26 187 70 217 27 17 37 18 116 6 33 -5 150 -58 150 -68 0
-4 5 -8 10 -8 18 0 90 -57 82 -65 -4 -5 -1 -5 6 -1 6 4 12 17 12 29 0 47 -198
152 -308 163 -55 6 -61 5 -94 -25z"/>
<path d="M3268 1487 c-59 -100 -112 -194 -118 -208 -10 -23 -5 -37 51 -140
102 -189 171 -299 185 -299 21 0 17 40 -9 79 -49 75 -77 121 -77 126 1 3 -6
13 -15 21 -8 9 -13 20 -10 25 4 5 2 9 -3 9 -5 0 -17 19 -27 43 -10 23 -25 50
-33 59 -8 9 -11 22 -7 27 3 6 2 11 -3 11 -6 0 -13 7 -16 16 -4 11 -2 15 8 11
10 -4 13 -1 10 7 -3 8 9 36 25 63 17 28 31 55 31 62 0 6 3 11 8 11 4 0 22 29
41 65 19 35 38 62 43 59 5 -3 8 -2 7 3 -3 19 2 34 10 29 5 -4 7 2 4 13 -3 11
2 21 11 24 19 8 22 67 4 66 -7 0 -61 -82 -120 -182z"/>
<path d="M3105 1638 c-60 -11 -111 -21 -112 -22 -2 -1 17 -53 41 -116 l44
-114 25 51 c14 27 51 87 81 133 31 46 56 85 56 87 0 5 -13 3 -135 -19z m10
-48 c3 5 13 10 22 10 13 0 13 -2 2 -17 -8 -9 -13 -19 -11 -22 1 -3 -4 -13 -12
-23 -8 -9 -13 -18 -11 -20 2 -2 -5 -10 -17 -17 -11 -7 -18 -8 -15 -4 3 5 0 20
-6 34 -7 13 -12 30 -12 37 0 19 27 33 41 21 8 -7 14 -6 19 1z"/>
<path d="M2770 1561 c-218 -78 -352 -172 -381 -271 -34 -114 111 -247 374
-339 49 -17 95 -31 102 -31 8 0 23 29 36 68 12 37 41 113 65 170 l43 103 -35
82 c-20 45 -49 120 -66 167 -17 47 -31 86 -32 86 0 1 -48 -15 -106 -35z m96
-56 c3 -19 5 -36 3 -38 -2 -2 4 -12 14 -21 10 -10 21 -31 24 -47 3 -16 9 -29
14 -29 5 0 8 -3 7 -7 -1 -5 4 -24 11 -43 8 -19 15 -42 17 -50 4 -19 -17 -80
-28 -80 -4 0 -5 -6 -2 -14 3 -7 -2 -21 -11 -29 -9 -9 -15 -18 -14 -19 4 -9
-23 -88 -29 -84 -4 2 -7 -9 -8 -26 -1 -16 -5 -33 -10 -38 -9 -9 -77 7 -129 30
-84 37 -155 75 -155 84 0 5 -3 6 -6 3 -10 -9 -81 46 -110 84 -26 36 -31 86
-13 122 17 31 92 107 107 107 6 0 12 5 12 11 0 5 5 7 10 4 6 -3 10 -1 10 5 0
6 4 9 9 5 5 -3 12 -1 16 5 4 6 11 7 17 4 6 -4 8 -2 4 4 -6 10 30 28 47 24 4
-1 7 2 7 7 0 5 20 14 45 20 25 6 45 16 45 22 0 6 9 9 20 6 11 -3 20 -1 20 5 0
6 7 8 15 4 8 -3 15 -1 15 5 0 23 20 -4 26 -36z"/>
<path d="M3385 1340 c-4 -11 -10 -18 -15 -15 -18 11 -28 -80 -14 -127 3 -10
11 -18 19 -18 7 0 15 -8 17 -17 2 -9 3 31 3 90 0 59 -1 107 -2 107 -1 0 -5 -9
-8 -20z"/>
<path d="M3033 1008 c-23 -62 -41 -114 -39 -116 5 -4 230 -41 234 -37 1 1 -12
25 -30 52 -18 28 -51 87 -73 131 -22 44 -42 81 -45 81 -3 0 -24 -50 -47 -111z
m81 -42 c14 -25 26 -47 26 -51 0 -4 -78 0 -86 4 -10 7 19 91 30 91 2 0 16 -20
30 -44z"/>
<path d="M2949 740 c-5 -19 -17 -88 -26 -154 -25 -195 6 -350 81 -398 62 -39
196 -5 331 83 41 28 65 50 65 62 0 14 -5 17 -22 11 -13 -4 -25 -10 -28 -13
-16 -21 -111 -72 -122 -65 -7 4 -10 3 -5 -1 9 -10 -50 -34 -125 -50 -43 -9
-87 14 -109 57 -25 49 -30 81 -30 183 0 97 4 136 14 152 4 6 3 15 -3 18 -6 4
-7 12 -3 18 5 7 10 26 12 42 4 41 14 48 53 39 18 -4 37 -7 41 -6 5 1 26 -2 47
-8 21 -6 60 -12 87 -15 26 -3 57 -7 68 -9 11 -3 23 -5 28 -5 4 -1 7 -7 7 -14
0 -18 70 -88 81 -81 15 9 10 21 -33 83 -38 55 -45 61 -77 61 -20 1 -100 11
-179 23 l-142 23 -11 -36z"/>
</g>
<rect x="0" y="0" width="340" height="300" fill="#1a1a1a" stroke="#666666" stroke-width="1" />
<text x="170.0" y="30" font-family="Arial, sans-serif" font-size="18" fill="#ffffff" text-anchor="middle" dominant-baseline="middle">Calibration Options</text>
</svg>
